<?xml version="1.0" standalone="no"?>
<!DOCTYPE svg PUBLIC "-//W3C//DTD SVG 20010904//EN"
 "http://www.w3.org/TR/2001/REC-SVG-20010904/DTD/svg10.dtd">
<svg version="1.0" xmlns="http://www.w3.org/2000/svg"
 width="414.000000pt" height="422.000000pt" viewBox="0 0 414.000000 422.000000"
 preserveAspectRatio="xMidYMid meet">

<g transform="translate(0.000000,422.000000) scale(0.100000,-0.100000)"
fill="#000000" stroke="none">
<path d="M170 3790 l0 -320 205 0 c113 0 205 -3 205 -7 0 -5 -20 -35 -44 -68
l-44 -60 44 -61 44 -62 0 -156 0 -156 -205 0 -205 0 0 -320 0 -320 420 0 420
0 0 155 0 155 330 0 330 0 0 -155 0 -155 205 0 205 0 0 -210 0 -210 -205 0
-205 0 0 -324 0 -323 -62 -13 c-35 -7 -66 -15 -71 -17 -4 -2 13 -28 38 -56
l45 -52 -132 -127 -133 -127 -372 0 -373 -1 0 -320 0 -320 420 0 420 0 0 320
0 320 -32 0 c-32 0 -30 3 90 123 l124 122 48 -55 c35 -39 50 -51 54 -40 3 8
21 68 41 133 l36 117 314 0 313 0 38 -112 c20 -62 39 -117 42 -122 3 -5 24 11
46 37 l41 47 136 -123 c117 -105 133 -122 113 -125 l-24 -3 0 -320 0 -319 420
0 420 0 0 320 0 320 -379 0 -378 0 -147 131 c-164 147 -155 126 -87 201 27 30
27 29 -46 48 -24 5 -61 15 -83 20 l-40 11 0 314 0 315 -205 0 -205 0 0 210 0
210 205 0 205 0 0 155 0 155 330 0 330 0 0 -155 0 -155 420 0 420 0 0 320 0
320 -420 0 -420 0 0 -155 0 -155 -330 0 -330 0 0 155 0 155 -420 0 -420 0 0
-155 0 -155 -330 0 -330 0 0 155 0 155 -205 0 -205 0 0 134 c0 147 -5 133 85
256 l33 45 -49 68 -49 67 195 0 195 0 0 320 0 320 -420 0 -420 0 0 -320z m800
0 l0 -280 -380 0 -380 0 0 280 0 280 380 0 380 0 0 -280z m-320 -395 c22 -30
40 -57 40 -60 0 -8 -79 -115 -85 -115 -6 0 -85 107 -85 115 0 8 79 115 85 115
2 0 23 -25 45 -55z m320 -815 l0 -280 -380 0 -380 0 0 280 0 280 380 0 380 0
0 -280z m1500 0 l0 -280 -380 0 -380 0 0 280 0 280 380 0 380 0 0 -280z m1500
0 l0 -280 -380 0 -380 0 0 280 0 280 380 0 380 0 0 -280z m-1500 -1060 l0
-280 -380 0 -380 0 0 280 0 280 380 0 380 0 0 -280z m-684 -335 c-3 -8 -17
-54 -32 -102 -14 -49 -29 -91 -33 -95 -4 -4 -39 29 -79 74 -40 45 -70 83 -68
86 5 5 183 49 205 51 8 1 11 -5 7 -14z m772 -9 c52 -14 96 -26 98 -29 6 -5
-116 -143 -124 -139 -6 2 -74 192 -69 192 1 0 44 -11 95 -24z m-1148 -696 l0
-280 -380 0 -380 0 0 280 0 280 380 0 380 0 0 -280z m2220 0 l0 -280 -380 0
-380 0 0 280 0 280 380 0 380 0 0 -280z"/>
<path d="M550 3885 c0 -11 8 -13 30 -8 42 8 40 -20 -2 -32 -28 -8 -33 -15 -33
-40 0 -30 1 -30 56 -32 l56 -1 -5 51 c-2 29 -9 58 -14 65 -15 18 -88 16 -88
-3z m60 -70 c0 -8 -7 -15 -15 -15 -16 0 -20 12 -8 23 11 12 23 8 23 -8z"/>
<path d="M540 2657 l0 -94 50 -1 c55 -1 80 20 80 68 0 42 -22 63 -58 58 -30
-4 -32 -3 -32 29 0 26 -4 33 -20 33 -19 0 -20 -7 -20 -93z m88 -28 c3 -27 -20
-55 -38 -44 -11 7 -14 58 -3 69 14 14 38 0 41 -25z"/>
<path d="M2057 2672 c-22 -25 -21 -75 1 -95 25 -23 92 -23 92 -1 0 12 -6 15
-22 11 -28 -8 -48 9 -48 38 0 29 24 48 50 40 14 -5 20 -2 20 9 0 24 -72 22
-93 -2z"/>
<path d="M3620 2716 c0 -30 -2 -33 -25 -28 -51 9 -83 -55 -55 -108 8 -16 21
-19 65 -19 l55 1 0 94 c0 87 -1 94 -20 94 -16 0 -20 -7 -20 -34z m-5 -87 c0
-27 -4 -34 -20 -34 -24 0 -33 38 -14 61 19 23 34 11 34 -27z"/>
<path d="M2057 1612 c-23 -25 -21 -75 2 -96 23 -21 92 -18 99 3 3 10 -1 12
-18 8 -25 -6 -60 7 -60 23 0 6 18 10 41 10 40 0 41 1 34 27 -3 15 -12 31 -18
35 -22 14 -64 8 -80 -10z m61 -20 c2 -7 -6 -12 -17 -12 -21 0 -27 11 -14 24 9
9 26 2 31 -12z"/>
<path d="M1035 643 c-21 -16 -31 -60 -27 -120 3 -54 7 -63 23 -63 16 0 19 8
19 55 0 42 3 55 15 55 8 0 15 5 15 10 0 6 -7 10 -15 10 -8 0 -15 7 -15 15 0 9
10 15 26 15 16 0 24 5 22 13 -5 14 -48 21 -63 10z"/>
<path d="M3205 574 c-47 -47 16 -147 64 -101 10 10 12 8 9 -8 -2 -15 -12 -20
-35 -21 -39 0 -53 -11 -33 -24 25 -16 69 -11 90 10 16 16 20 33 20 89 l0 69
-50 0 c-31 1 -55 -5 -65 -14z m73 -41 c3 -30 -18 -50 -39 -37 -13 8 -11 48 3
62 19 19 33 9 36 -25z"/>
</g>
</svg>
